<svg width="31" height="70" viewBox="0 0 31 70" fill="none" xmlns="http://www.w3.org/2000/svg">
<path d="M17.417 2.88525C17.417 1.78068 16.5216 0.885254 15.417 0.885254C14.3124 0.885254 13.417 1.78068 13.417 2.88525L17.417 2.88525ZM14.0028 68.9279C14.7838 69.7089 16.0502 69.7089 16.8312 68.9279L29.5591 56.2C30.3402 55.4189 30.3402 54.1526 29.5591 53.3715C28.7781 52.5905 27.5118 52.5905 26.7307 53.3715L15.417 64.6852L4.10329 53.3715C3.32224 52.5905 2.05591 52.5905 1.27486 53.3715C0.49381 54.1526 0.49381 55.4189 1.27486 56.2L14.0028 68.9279ZM13.417 2.88525L13.417 67.5137L17.417 67.5137L17.417 2.88525L13.417 2.88525Z" fill="white"/>
</svg>
