<svg width="62" height="60" viewBox="0 0 62 60" fill="none" xmlns="http://www.w3.org/2000/svg">
<path d="M0.348145 28.8C0.348145 15.2233 0.34814 8.42791 4.63516 4.21674C8.92219 0.00558126 15.8251 0 29.6281 0H32.0681C45.8712 0 52.7798 0 57.0611 4.21674C61.3425 8.43349 61.3481 15.2233 61.3481 28.8V31.2C61.3481 44.7767 61.3482 51.5721 57.0611 55.7833C52.7741 59.9944 45.8712 60 32.0681 60H29.6281C15.8251 60 8.91651 60 4.63516 55.7833C0.353815 51.5665 0.348145 44.7767 0.348145 31.2V28.8Z" fill="#426FB1"/>
<path fill-rule="evenodd" clip-rule="evenodd" d="M12.9142 29.3024C22.6685 25.122 29.1733 22.3657 32.4286 21.0336C41.7233 17.2299 43.6526 16.5685 44.9123 16.5489C45.3747 16.5381 45.8287 16.672 46.2089 16.9313C46.4748 17.1594 46.6447 17.4768 46.6855 17.8215C46.7533 18.2507 46.7723 18.6859 46.7423 19.1192C46.2373 24.3238 44.0583 36.9545 42.9489 42.7815C42.4808 45.2485 41.5587 46.0773 40.6621 46.1582C38.7187 46.3341 37.2433 44.8941 35.3622 43.6801C32.4172 41.7824 30.7518 40.6103 27.8947 38.7462C24.5894 36.6057 26.7314 35.428 28.6153 33.5052C29.109 33.0001 37.6689 25.3396 37.8363 24.6448C37.8578 24.5427 37.8548 24.4372 37.8278 24.3364C37.8007 24.2357 37.7502 24.1425 37.6802 24.0643C37.5786 23.9998 37.4627 23.96 37.3423 23.9484C37.2219 23.9367 37.1004 23.9535 36.988 23.9973C36.6929 24.0643 31.9878 27.1229 22.8728 33.1731C21.5356 34.0773 20.326 34.5173 19.244 34.4931C18.0467 34.468 15.7486 33.8289 14.0406 33.282C11.9467 32.6122 10.2813 32.2578 10.426 31.1192C10.4998 30.5238 11.3292 29.9182 12.9142 29.3024Z" fill="white"/>
</svg>
