<svg width="62" height="60" viewBox="0 0 62 60" fill="none" xmlns="http://www.w3.org/2000/svg">
<g clip-path="url(#clip0_130_741)">
<path d="M0.0688477 28.8C0.0688477 15.2233 0.0688436 8.42791 4.35587 4.21674C8.64289 0.00558126 15.5458 0 29.3489 0H31.7888C45.5919 0 52.5005 0 56.7818 4.21674C61.0632 8.43349 61.0689 15.2233 61.0689 28.8V31.2C61.0689 44.7767 61.0689 51.5721 56.7818 55.7833C52.4948 59.9944 45.5919 60 31.7888 60H29.3489C15.5458 60 8.63722 60 4.35587 55.7833C0.0745179 51.5665 0.0688477 44.7767 0.0688477 31.2V28.8Z" fill="#426FB1"/>
<path d="M14.1328 46.4287L16.4877 37.9673C14.6637 34.8534 13.935 31.2346 14.4147 27.6719C14.8944 24.1093 16.5556 20.8018 19.1409 18.2623C21.7261 15.7227 25.0909 14.093 28.7135 13.6259C32.3362 13.1587 36.0144 13.8801 39.1778 15.6783C42.3412 17.4765 44.8131 20.251 46.2103 23.5717C47.6075 26.8923 47.8519 30.5736 46.9056 34.0447C45.9593 37.5159 43.8752 40.583 40.9764 42.7705C38.0776 44.9581 34.526 46.1439 30.8723 46.1441C28.1017 46.1445 25.3751 45.4614 22.9423 44.1571L14.1328 46.4287ZM23.3339 41.2017L23.8389 41.4948C25.9644 42.7342 28.3901 43.3877 30.861 43.3869C33.9191 43.3863 36.8903 42.3863 39.3076 40.5439C41.725 38.7015 43.4513 36.1213 44.2155 33.2088C44.9796 30.2962 44.7381 27.2165 43.5289 24.4536C42.3198 21.6908 40.2115 19.4015 37.5356 17.9455C34.8596 16.4896 31.7676 15.9495 28.7456 16.4102C25.7236 16.871 22.9429 18.3063 20.8406 20.4908C18.7383 22.6752 17.4336 25.4849 17.1315 28.4781C16.8294 31.4714 17.5471 34.4785 19.1717 37.0269L19.5008 37.5404L18.1077 42.5497L23.3339 41.2017Z" fill="white"/>
<path fill-rule="evenodd" clip-rule="evenodd" d="M39.2223 33.7005C39.1202 33.5302 38.8421 33.4214 38.4279 33.2233C38.0136 33.0251 35.9737 32.0316 35.5907 31.8977C35.2076 31.7637 34.9353 31.6912 34.6572 32.1014C34.3792 32.5116 33.5876 33.427 33.3436 33.7005C33.0996 33.974 32.8613 34.0074 32.447 33.8037C31.2245 33.3224 30.0957 32.637 29.1105 31.7777C28.2038 30.9526 27.4265 30 26.8038 28.9507C26.5627 28.5433 26.7783 28.3228 26.9854 28.1135C27.1925 27.9042 27.3996 27.6363 27.6068 27.3991C27.7771 27.1927 27.9166 26.9634 28.021 26.7181C28.0767 26.6058 28.1028 26.4815 28.0968 26.3567C28.0909 26.2318 28.0531 26.1104 27.987 26.0037C27.8848 25.8 27.0535 23.7907 26.7102 22.973C26.3669 22.1554 26.0293 22.2865 25.7768 22.2726C25.5242 22.2586 25.2576 22.2726 24.9795 22.2726C24.7747 22.2808 24.5737 22.3295 24.3885 22.4158C24.2032 22.5021 24.0376 22.6242 23.9014 22.7749C23.4323 23.2121 23.0608 23.7407 22.8107 24.3268C22.5606 24.913 22.4374 25.5439 22.4487 26.1795C22.4487 28.186 23.9354 30.1256 24.151 30.3991C24.3667 30.6726 27.0762 34.7916 31.2441 36.5581C32.0164 36.8866 32.8063 37.1736 33.6103 37.4177C34.4554 37.6723 35.3496 37.7277 36.2205 37.5795C37.0178 37.4623 38.6747 36.5944 39.0208 35.626C39.367 34.6577 39.3386 33.8707 39.2223 33.7005Z" fill="white"/>
</g>
<defs>
<clipPath id="clip0_130_741">
<rect width="61" height="60" fill="white" transform="translate(0.0688477)"/>
</clipPath>
</defs>
</svg>
